<svg xmlns="http://www.w3.org/2000/svg" viewBox="0 0 1000 1000"><rect width="1000" height="1000" fill="#0E1B2B"/><g transform="translate(100.0 570.0) scale(0.2821869488536155)"><path fill="#F8F9FA" d="M8 -714H586V-606H359V0H234V-606H8Z M1086 -115Q1086 -94 1091.5 -85.0Q1097 -76 1113 -76Q1118 -76 1125 -76Q1132 -76 1141 -78V1Q1135 3 1125.5 5.5Q1116 8 1106.0 10.0Q1096 12 1086.0 13.0Q1076 14 1069 14Q1034 14 1011.0 0.0Q988 -14 981 -49Q947 -16 897.5 -1.0Q848 14 802 14Q767 14 735.0 4.5Q703 -5 678.5 -23.5Q654 -42 639.5 -70.5Q625 -99 625 -137Q625 -185 642.5 -215.0Q660 -245 688.5 -262.0Q717 -279 752.5 -286.5Q788 -294 824 -298Q855 -304 883.0 -306.5Q911 -309 932.5 -315.0Q954 -321 966.5 -333.5Q979 -346 979 -371Q979 -393 968.5 -407.0Q958 -421 942.5 -428.5Q927 -436 908.0 -438.5Q889 -441 872 -441Q824 -441 793.0 -421.0Q762 -401 758 -359H644Q647 -409 668.0 -442.0Q689 -475 721.5 -495.0Q754 -515 795.0 -523.0Q836 -531 879 -531Q917 -531 954.0 -523.0Q991 -515 1020.5 -497.0Q1050 -479 1068.0 -450.5Q1086 -422 1086 -381ZM972 -259Q946 -242 908.0 -238.5Q870 -235 832 -228Q814 -225 797.0 -219.5Q780 -214 767.0 -204.5Q754 -195 746.5 -179.5Q739 -164 739 -142Q739 -123 750.0 -110.0Q761 -97 776.5 -89.5Q792 -82 810.5 -79.0Q829 -76 844 -76Q863 -76 885.0 -81.0Q907 -86 926.5 -98.0Q946 -110 959.0 -128.5Q972 -147 972 -174Z M1209 -517H1317V-441L1319 -439Q1345 -482 1387.0 -506.5Q1429 -531 1480 -531Q1565 -531 1614.0 -487.0Q1663 -443 1663 -355V0H1549V-325Q1547 -386 1523.0 -413.5Q1499 -441 1448 -441Q1419 -441 1396.0 -430.5Q1373 -420 1357.0 -401.5Q1341 -383 1332.0 -358.0Q1323 -333 1323 -305V0H1209Z M1869 -166Q1874 -116 1907.0 -96.0Q1940 -76 1986 -76Q2002 -76 2022.5 -78.5Q2043 -81 2061.0 -88.0Q2079 -95 2090.5 -108.5Q2102 -122 2101.0 -144.0Q2100 -166 2085.0 -180.0Q2070 -194 2046.5 -202.5Q2023 -211 1993.0 -217.0Q1963 -223 1932 -230Q1900 -237 1870.5 -247.0Q1841 -257 1817.5 -274.0Q1794 -291 1780.0 -317.5Q1766 -344 1766 -383Q1766 -425 1786.5 -453.5Q1807 -482 1838.5 -499.5Q1870 -517 1908.5 -524.0Q1947 -531 1982 -531Q2022 -531 2058.5 -522.5Q2095 -514 2124.5 -495.0Q2154 -476 2173.5 -445.5Q2193 -415 2198 -372H2079Q2071 -413 2041.5 -427.0Q2012 -441 1974 -441Q1962 -441 1945.5 -439.0Q1929 -437 1914.5 -431.5Q1900 -426 1890.0 -415.5Q1880 -405 1880 -388Q1880 -367 1894.5 -354.0Q1909 -341 1932.5 -332.5Q1956 -324 1986.0 -318.0Q2016 -312 2048 -305Q2079 -298 2109.0 -288.0Q2139 -278 2162.5 -261.0Q2186 -244 2200.5 -218.0Q2215 -192 2215 -154Q2215 -108 2194.0 -76.0Q2173 -44 2139.5 -24.0Q2106 -4 2065.0 5.0Q2024 14 1984 14Q1935 14 1893.5 3.0Q1852 -8 1821.5 -30.5Q1791 -53 1773.5 -86.5Q1756 -120 1755 -166Z M2539 14Q2477 14 2428.5 -6.5Q2380 -27 2346.5 -63.0Q2313 -99 2295.5 -149.0Q2278 -199 2278 -259Q2278 -318 2295.5 -368.0Q2313 -418 2346.5 -454.0Q2380 -490 2428.5 -510.5Q2477 -531 2539 -531Q2601 -531 2649.5 -510.5Q2698 -490 2731.5 -454.0Q2765 -418 2782.5 -368.0Q2800 -318 2800 -259Q2800 -199 2782.5 -149.0Q2765 -99 2731.5 -63.0Q2698 -27 2649.5 -6.5Q2601 14 2539 14ZM2539 -76Q2577 -76 2605.0 -92.0Q2633 -108 2651.0 -134.0Q2669 -160 2677.5 -192.5Q2686 -225 2686 -259Q2686 -292 2677.5 -325.0Q2669 -358 2651.0 -383.5Q2633 -409 2605.0 -425.0Q2577 -441 2539 -441Q2501 -441 2473.0 -425.0Q2445 -409 2427.0 -383.5Q2409 -358 2400.5 -325.0Q2392 -292 2392 -259Q2392 -225 2400.5 -192.5Q2409 -160 2427.0 -134.0Q2445 -108 2473.0 -92.0Q2501 -76 2539 -76Z"/></g></svg>